<svg width="580" height="487" viewBox="0 0 580 487" fill="none" xmlns="http://www.w3.org/2000/svg">
<g opacity="0.2">
<mask id="mask0_88_2595" style="mask-type:alpha" maskUnits="userSpaceOnUse" x="0" y="0" width="580" height="487">
<rect width="580" height="487" fill="#08627E"/>
</mask>
<g mask="url(#mask0_88_2595)">
<rect x="-253.401" y="157.714" width="820" height="2" transform="rotate(-34.7596 -253.401 157.714)" fill="#08627E"/>
<rect x="-247.7" y="165.929" width="820" height="2" transform="rotate(-34.7596 -247.7 165.929)" fill="#08627E"/>
<rect x="-241.999" y="174.145" width="820" height="2" transform="rotate(-34.7596 -241.999 174.145)" fill="#08627E"/>
<rect x="-236.297" y="182.36" width="820" height="2" transform="rotate(-34.7596 -236.297 182.36)" fill="#08627E"/>
<rect x="-230.596" y="190.576" width="820" height="2" transform="rotate(-34.7596 -230.596 190.576)" fill="#08627E"/>
<rect x="-224.895" y="198.791" width="820" height="2" transform="rotate(-34.7596 -224.895 198.791)" fill="#08627E"/>
<rect x="-219.193" y="207.007" width="820" height="2" transform="rotate(-34.7596 -219.193 207.007)" fill="#08627E"/>
<rect x="-213.492" y="215.222" width="820" height="2" transform="rotate(-34.7596 -213.492 215.222)" fill="#08627E"/>
<rect x="-207.791" y="223.438" width="820" height="2" transform="rotate(-34.7596 -207.791 223.438)" fill="#08627E"/>
<rect x="-202.089" y="231.653" width="820" height="2" transform="rotate(-34.7596 -202.089 231.653)" fill="#08627E"/>
<rect x="-196.388" y="239.869" width="820" height="2" transform="rotate(-34.7596 -196.388 239.869)" fill="#08627E"/>
<rect x="-190.687" y="248.084" width="820" height="2" transform="rotate(-34.7596 -190.687 248.084)" fill="#08627E"/>
<rect x="-184.985" y="256.3" width="820" height="2" transform="rotate(-34.7596 -184.985 256.3)" fill="#08627E"/>
<rect x="-179.284" y="264.515" width="820" height="2" transform="rotate(-34.7596 -179.284 264.515)" fill="#08627E"/>
<rect x="-173.583" y="272.731" width="820" height="2" transform="rotate(-34.7596 -173.583 272.731)" fill="#08627E"/>
<rect x="-167.881" y="280.946" width="820" height="2" transform="rotate(-34.7596 -167.881 280.946)" fill="#08627E"/>
<rect x="-162.18" y="289.162" width="820" height="2" transform="rotate(-34.7596 -162.18 289.162)" fill="#08627E"/>
<rect x="-156.479" y="297.378" width="820" height="2" transform="rotate(-34.7596 -156.479 297.378)" fill="#08627E"/>
<rect x="-150.777" y="305.593" width="820" height="2" transform="rotate(-34.7596 -150.777 305.593)" fill="#08627E"/>
<rect x="-145.076" y="313.809" width="820" height="2" transform="rotate(-34.7596 -145.076 313.809)" fill="#08627E"/>
<rect x="-139.375" y="322.024" width="820" height="2" transform="rotate(-34.7596 -139.375 322.024)" fill="#08627E"/>
<rect x="-133.673" y="330.24" width="820" height="2" transform="rotate(-34.7596 -133.673 330.24)" fill="#08627E"/>
<rect x="-127.972" y="338.455" width="820" height="2" transform="rotate(-34.7596 -127.972 338.455)" fill="#08627E"/>
<rect x="-122.271" y="346.671" width="820" height="2" transform="rotate(-34.7596 -122.271 346.671)" fill="#08627E"/>
<rect x="-116.569" y="354.886" width="820" height="2" transform="rotate(-34.7596 -116.569 354.886)" fill="#08627E"/>
<rect x="-110.868" y="363.102" width="820" height="2" transform="rotate(-34.7596 -110.868 363.102)" fill="#08627E"/>
<rect x="-105.167" y="371.317" width="820" height="2" transform="rotate(-34.7596 -105.167 371.317)" fill="#08627E"/>
<rect x="-99.4653" y="379.533" width="820" height="2" transform="rotate(-34.7596 -99.4653 379.533)" fill="#08627E"/>
<rect x="-93.7637" y="387.748" width="820" height="2" transform="rotate(-34.7596 -93.7637 387.748)" fill="#08627E"/>
<rect x="-88.0625" y="395.964" width="820" height="2" transform="rotate(-34.7596 -88.0625 395.964)" fill="#08627E"/>
<rect x="-82.3608" y="404.179" width="820" height="2" transform="rotate(-34.7596 -82.3608 404.179)" fill="#08627E"/>
<rect x="-76.6597" y="412.395" width="820" height="2" transform="rotate(-34.7596 -76.6597 412.395)" fill="#08627E"/>
<rect x="-70.9585" y="420.61" width="820" height="2" transform="rotate(-34.7596 -70.9585 420.61)" fill="#08627E"/>
<rect x="-65.2568" y="428.826" width="820" height="2" transform="rotate(-34.7596 -65.2568 428.826)" fill="#08627E"/>
<rect x="-59.5557" y="437.041" width="820" height="2" transform="rotate(-34.7596 -59.5557 437.041)" fill="#08627E"/>
<rect x="-53.8545" y="445.257" width="820" height="2" transform="rotate(-34.7596 -53.8545 445.257)" fill="#08627E"/>
<rect x="-48.1528" y="453.472" width="820" height="2" transform="rotate(-34.7596 -48.1528 453.472)" fill="#08627E"/>
<rect x="-42.4517" y="461.688" width="820" height="2" transform="rotate(-34.7596 -42.4517 461.688)" fill="#08627E"/>
<rect x="-36.7505" y="469.903" width="820" height="2" transform="rotate(-34.7596 -36.7505 469.903)" fill="#08627E"/>
<rect x="-31.0488" y="478.119" width="820" height="2" transform="rotate(-34.7596 -31.0488 478.119)" fill="#08627E"/>
<rect x="-25.3477" y="486.334" width="820" height="2" transform="rotate(-34.7596 -25.3477 486.334)" fill="#08627E"/>
<rect x="-19.6465" y="494.55" width="820" height="2" transform="rotate(-34.7596 -19.6465 494.55)" fill="#08627E"/>
<rect x="-13.9448" y="502.765" width="820" height="2" transform="rotate(-34.7596 -13.9448 502.765)" fill="#08627E"/>
<rect x="-8.24365" y="510.981" width="820" height="2" transform="rotate(-34.7596 -8.24365 510.981)" fill="#08627E"/>
<rect x="-2.54248" y="519.196" width="820" height="2" transform="rotate(-34.7596 -2.54248 519.196)" fill="#08627E"/>
<rect x="3.15918" y="527.412" width="820" height="2" transform="rotate(-34.7596 3.15918 527.412)" fill="#08627E"/>
<rect x="8.86035" y="535.627" width="820" height="2" transform="rotate(-34.7596 8.86035 535.627)" fill="#08627E"/>
<rect x="14.5615" y="543.843" width="820" height="2" transform="rotate(-34.7596 14.5615 543.843)" fill="#08627E"/>
<rect x="20.2632" y="552.058" width="820" height="2" transform="rotate(-34.7596 20.2632 552.058)" fill="#08627E"/>
<rect x="25.9644" y="560.274" width="820" height="2" transform="rotate(-34.7596 25.9644 560.274)" fill="#08627E"/>
<rect x="31.666" y="568.49" width="820" height="2" transform="rotate(-34.7596 31.666 568.49)" fill="#08627E"/>
<rect x="37.3672" y="576.705" width="820" height="2" transform="rotate(-34.7596 37.3672 576.705)" fill="#08627E"/>
<rect x="43.0684" y="584.921" width="820" height="2" transform="rotate(-34.7596 43.0684 584.921)" fill="#08627E"/>
<rect x="48.77" y="593.136" width="820" height="2" transform="rotate(-34.7596 48.77 593.136)" fill="#08627E"/>
<rect x="54.4712" y="601.352" width="820" height="2" transform="rotate(-34.7596 54.4712 601.352)" fill="#08627E"/>
<rect x="60.1724" y="609.567" width="820" height="2" transform="rotate(-34.7596 60.1724 609.567)" fill="#08627E"/>
<rect x="65.874" y="617.783" width="820" height="2" transform="rotate(-34.7596 65.874 617.783)" fill="#08627E"/>
<rect x="71.5752" y="625.998" width="820" height="2" transform="rotate(-34.7596 71.5752 625.998)" fill="#08627E"/>
<rect x="77.2764" y="634.214" width="820" height="2" transform="rotate(-34.7596 77.2764 634.214)" fill="#08627E"/>
<rect x="82.978" y="642.429" width="820" height="2" transform="rotate(-34.7596 82.978 642.429)" fill="#08627E"/>
<rect x="88.6792" y="650.645" width="820" height="2" transform="rotate(-34.7596 88.6792 650.645)" fill="#08627E"/>
<rect x="94.3804" y="658.86" width="820" height="2" transform="rotate(-34.7596 94.3804 658.86)" fill="#08627E"/>
<rect x="100.082" y="667.076" width="820" height="2" transform="rotate(-34.7596 100.082 667.076)" fill="#08627E"/>
<rect x="105.783" y="675.291" width="820" height="2" transform="rotate(-34.7596 105.783 675.291)" fill="#08627E"/>
<rect x="111.484" y="683.507" width="820" height="2" transform="rotate(-34.7596 111.484 683.507)" fill="#08627E"/>
<rect x="117.186" y="691.722" width="820" height="2" transform="rotate(-34.7596 117.186 691.722)" fill="#08627E"/>
<rect x="122.887" y="699.938" width="820" height="2" transform="rotate(-34.7596 122.887 699.938)" fill="#08627E"/>
<rect x="128.588" y="708.153" width="820" height="2" transform="rotate(-34.7596 128.588 708.153)" fill="#08627E"/>
</g>
</g>
</svg>
