<svg width="19" height="15" viewBox="0 0 19 15" fill="none" xmlns="http://www.w3.org/2000/svg">
<g clip-path="url(#clip0_272_1564)">
<path d="M0 0H19V14.4762H0V0Z" fill="#012169"/>
<path d="M2.22656 0L9.47031 5.45873L16.6844 0H19V1.86984L11.875 7.26825L19 12.6365V14.4762H16.625L9.5 9.07778L2.40469 14.4762H0V12.6667L7.09531 7.29841L0 1.93016V0H2.22656Z" fill="white"/>
<path d="M12.5875 8.4746L19 13.2698V14.4762L10.9547 8.4746H12.5875ZM7.125 9.07778L7.30312 10.1333L1.60312 14.4762H0L7.125 9.07778ZM19 0V0.0904762L11.6078 5.76032L11.6672 4.43333L17.5156 0H19ZM0 0L7.09531 5.30794H5.31406L0 1.26667V0Z" fill="#C8102E"/>
<path d="M7.15469 0V14.4762H11.9047V0H7.15469ZM0 4.8254V9.65079H19V4.8254H0Z" fill="white"/>
<path d="M0 5.82063V8.71587H19V5.82063H0ZM8.10469 0V14.4762H10.9547V0H8.10469Z" fill="#C8102E"/>
</g>
<defs>
<clipPath id="clip0_272_1564">
<rect width="19" height="14.4762" fill="white"/>
</clipPath>
</defs>
</svg>
