<svg width="16" height="16" viewBox="0 0 16 16" fill="none" xmlns="http://www.w3.org/2000/svg">
<path d="M3.66667 13.6667C3.29848 13.6667 3 13.3682 3 13V3C3 2.63181 3.29848 2.33332 3.66667 2.33332H7.92C8.17344 2.33157 8.40596 2.47366 8.52 2.7L9 3.66667H12.3333C12.7015 3.66667 13 3.96514 13 4.33333V9.66667C13 10.0349 12.7015 10.3333 12.3333 10.3333H8.74C8.48896 10.3326 8.25963 10.1909 8.14667 9.96667L7.66667 9H4.33333V13C4.33333 13.3682 4.03486 13.6667 3.66667 13.6667ZM4.33333 3.66667V7.66667H8.33333L9 9H11.6667V5H8.33333L7.66667 3.66667H4.33333Z" fill="#E8E8E8"/>
</svg>
