<svg width="31" height="31" viewBox="0 0 31 31" fill="none" xmlns="http://www.w3.org/2000/svg">
<path d="M15.4999 28.4166C8.36624 28.4166 2.58325 22.6336 2.58325 15.4999C2.58325 8.36624 8.36624 2.58325 15.4999 2.58325C22.6336 2.58325 28.4166 8.36624 28.4166 15.4999C28.4088 22.6304 22.6304 28.4088 15.4999 28.4166ZM15.4999 5.16659C9.79298 5.16659 5.16659 9.79298 5.16659 15.4999C5.16659 21.2069 9.79298 25.8333 15.4999 25.8333C21.2069 25.8333 25.8333 21.2069 25.8333 15.4999C25.8268 9.79563 21.2042 5.17299 15.4999 5.16659ZM15.4999 23.2499C13.4591 23.2845 11.5301 22.32 10.3333 20.6666C9.7521 19.8894 9.31466 19.0145 9.04159 18.0833H21.9583C21.9583 18.0833 21.9583 18.0833 21.9583 18.0936C21.681 19.02 21.2438 19.8908 20.6666 20.6666C19.4696 22.3198 17.5407 23.2842 15.4999 23.2499ZM10.9791 15.4999C9.90903 15.4999 9.04159 14.6325 9.04159 13.5624C9.04159 12.4924 9.90903 11.6249 10.9791 11.6249C12.0491 11.6249 12.9166 12.4924 12.9166 13.5624C12.9166 14.6325 12.0491 15.4999 10.9791 15.4999ZM20.0117 15.4818C18.9467 15.4818 18.0833 14.6184 18.0833 13.5534C18.0833 12.4883 18.9467 11.6249 20.0117 11.6249C21.0768 11.6249 21.9402 12.4883 21.9402 13.5534C21.9387 14.6178 21.0762 15.4804 20.0117 15.4818Z" fill="white"/>
</svg>
