<svg width="32" height="32" viewBox="0 0 32 32" fill="none" xmlns="http://www.w3.org/2000/svg">
<path d="M15.391 25.744C15.2596 25.9192 15.1884 26.1321 15.188 26.351L15.168 29.426C15.1674 29.5319 15.1376 29.6356 15.082 29.7257C15.0264 29.8158 14.947 29.8889 14.8526 29.9369C14.7582 29.9849 14.6525 30.0061 14.5469 29.998C14.4413 29.9899 14.34 29.9529 14.254 29.891C10.79 27.453 3.82999 21.9 2.25599 15.77C1.06799 11.137 4.01399 4.926 11.114 6.16C12.852 6.463 14.518 7.68801 15.259 8.84001C15.351 8.97201 15.523 9.438 15.523 9.438C15.528 9.448 15.531 9.45501 15.533 9.46301L15.543 9.488L16.936 13.211C17.057 13.545 17.006 13.919 16.783 14.192L16.153 14.992C16.1424 15.0031 16.1324 15.0148 16.123 15.027C16.113 15.039 16.103 15.052 16.093 15.062L14.386 16.842C14.081 17.166 14.02 17.642 14.233 18.026L16.864 22.821C16.959 22.9911 17.0021 23.1852 16.9878 23.3795C16.9736 23.5738 16.9027 23.7596 16.784 23.914L15.391 25.744V25.744Z" fill="#F92F60"/>
<path d="M16.9289 8.32001C17.8639 7.34101 19.1169 6.44401 20.7499 6.16101C27.9509 4.92001 30.9299 11.115 29.7489 15.736C28.1459 21.911 20.9969 27.49 17.5249 29.892C17.4376 29.9544 17.3348 29.9915 17.2278 29.9994C17.1208 30.0073 17.0136 29.9855 16.9181 29.9366C16.8226 29.8877 16.7424 29.8134 16.6863 29.7219C16.6302 29.6305 16.6003 29.5253 16.5999 29.418L16.6199 26.986C16.6199 26.764 16.6929 26.552 16.8259 26.381L18.6239 24.05C18.7443 23.897 18.8164 23.7116 18.831 23.5175C18.8456 23.3234 18.8021 23.1293 18.7059 22.96L16.1279 18.319C16.0227 18.1321 15.9808 17.9161 16.0086 17.7034C16.0364 17.4907 16.1323 17.2927 16.2819 17.139L17.0319 16.362C17.0419 16.352 17.0519 16.339 17.0619 16.326C17.0716 16.3138 17.082 16.3021 17.0929 16.291L18.5109 14.535C18.7269 14.263 18.7879 13.89 18.6649 13.557L16.8369 8.72401C16.8162 8.67603 16.8056 8.62428 16.8059 8.57201C16.8059 8.42201 16.9289 8.32001 16.9289 8.32001V8.32001Z" fill="#F92F60"/>
</svg>
