<svg width="38" height="38" viewBox="0 0 38 38" fill="none" xmlns="http://www.w3.org/2000/svg">
<path d="M14.7357 14.7357H11.6524V17.8191H14.7357V14.7357Z" fill="white"/>
<path d="M17.8191 14.7357H20.9024V17.8191H17.8191V14.7357Z" fill="white"/>
<path d="M27.069 14.7357H23.9857V17.8191H27.069V14.7357Z" fill="white"/>
<path d="M5.48572 8.56908V33.2357L12.8857 27.6857C13.4189 27.2844 14.0684 27.0679 14.7357 27.0691H30.1524C31.8553 27.0691 33.2357 25.6886 33.2357 23.9857V8.56908C33.2357 6.8662 31.8553 5.48575 30.1524 5.48575H8.56905C6.86617 5.48575 5.48572 6.8662 5.48572 8.56908ZM8.56905 27.0691V8.56908H30.1524V23.9857H13.709C13.0415 23.984 12.3918 24.2005 11.859 24.6024L8.56905 27.0691Z" fill="white"/>
</svg>
