<svg width="19" height="19" viewBox="0 0 19 19" fill="none" xmlns="http://www.w3.org/2000/svg">
<path d="M13.2036 17.6703H5.66302C4.83011 17.6703 4.15491 16.9951 4.15491 16.1622V2.5892C4.15491 1.7563 4.83011 1.08109 5.66302 1.08109H13.2036C14.0365 1.08109 14.7117 1.7563 14.7117 2.5892V16.1622C14.7117 16.9951 14.0365 17.6703 13.2036 17.6703ZM5.66302 2.5892V16.1622H13.2036V2.5892H5.66302ZM9.43329 15.4081C9.01683 15.4081 8.67923 15.0705 8.67923 14.6541C8.67923 14.2376 9.01683 13.9 9.43329 13.9C9.84974 13.9 10.1873 14.2376 10.1873 14.6541C10.1873 15.0705 9.84974 15.4081 9.43329 15.4081Z" fill="#E8E8E8"/>
</svg>
