<svg width="43" height="37" viewBox="0 0 43 37" fill="none" xmlns="http://www.w3.org/2000/svg">
<g clip-path="url(#clip0_289_1243)">
<path d="M15.8143 18.992L23.0231 11.6131L20.4044 5.33303C20.1621 4.94069 17.1328 0.219083 11.4366 0.0126288C6.71788 -0.158506 3.67533 2.89601 3.21583 3.37294C0.962997 5.7112 0.457226 8.3915 0.211392 9.79764C-0.618427 14.5475 1.26222 18.391 2.28716 20.4147C3.97233 23.7418 6.00602 25.6415 9.33393 28.6907C11.8125 30.9617 15.4716 33.9819 20.4042 36.9845L24.1538 29.347L15.8142 18.992H15.8143Z" fill="#FF5346"/>
<path d="M42.7883 9.7978C42.5426 8.39165 42.0367 5.71135 39.7838 3.37309C39.3245 2.89617 36.2818 -0.158354 31.563 0.0127814C25.8669 0.219352 22.8376 4.94096 22.5953 5.3333L25.214 11.6134L18.0052 18.9923L26.3448 29.3473L22.5953 36.9848C27.5279 33.9821 31.187 30.962 33.6656 28.691C36.9935 25.6419 39.0272 23.7421 40.7124 20.415C41.7373 18.3913 43.618 14.5479 42.7882 9.79791L42.7883 9.7978Z" fill="#FF5346"/>
</g>
<defs>
<clipPath id="clip0_289_1243">
<rect width="43" height="37" fill="white"/>
</clipPath>
</defs>
</svg>
