<svg width="26" height="22" viewBox="0 0 26 22" fill="none" xmlns="http://www.w3.org/2000/svg">
<g clip-path="url(#clip0_238_1696)">
<path d="M9.39166 11.4954L13.5968 7.19102L12.0692 3.52765C11.9279 3.29878 10.1608 0.544513 6.83801 0.424082C4.08541 0.324253 2.31059 2.10606 2.04255 2.38426C0.728395 3.74825 0.433361 5.31176 0.289958 6.13201C-0.194103 8.90275 0.902939 11.1448 1.50083 12.3253C2.48384 14.2661 3.67016 15.3743 5.61144 17.1529C7.0573 18.4777 9.19175 20.2395 12.0691 21.991L14.2563 17.5358L9.39159 11.4954H9.39166Z" fill="#FF5346"/>
<path d="M25.1264 6.13201C24.9831 5.31176 24.688 3.74825 23.3739 2.38426C23.1059 2.10606 21.331 0.324253 18.5784 0.424082C15.2556 0.544581 13.4886 3.29885 13.3472 3.52772L14.8748 7.19109L10.6697 11.4954L15.5344 17.5359L13.3472 21.9911C16.2246 20.2395 18.359 18.4778 19.8049 17.153C21.7462 15.3744 22.9325 14.2662 23.9155 12.3254C24.5134 11.1449 25.6104 8.90288 25.1264 6.13208L25.1264 6.13201Z" fill="#FF5346"/>
</g>
<defs>
<clipPath id="clip0_238_1696">
<rect width="25.0833" height="21.5833" fill="white" transform="translate(0.166626 0.416626)"/>
</clipPath>
</defs>
</svg>
